  0
SECTION
  2
HEADER
  9
$ACADVER
  1
AC1009
  9
$INSBASE
 10
0.0
 20
0.0
 30
0.0
  9
$EXTMIN
 10
0.0
 20
0.0
 30
0.0
  9
$EXTMAX
 10
0.0
 20
0.0
 30
0.0
  0
ENDSEC
  0
SECTION
  2
TABLES
  0
TABLE
  2
VPORT
 70
0
  0
ENDTAB
  0
TABLE
  2
LTYPE
 70
1
  0
LTYPE
  2
CONTINUOUS
 70
0
  3
Solid line
 72
65
 73
0
 40
0.0
  0
ENDTAB
  0
TABLE
  2
LAYER
 70
1
  0
LAYER
  2
0
 70
64
 62
7
  6
continuous
  0
ENDTAB
  0
TABLE
  2
STYLE
 70
1
  0
STYLE
  2
STANDARD
 70
0
 40
0
 41
1.0
 50
0.0
 71
0
 42
1
 3
ARIAL.TTF
 4

  0
ENDTAB
  0
TABLE
  2
VIEW
 70
0
  0
ENDTAB
  0
ENDSEC
  0
SECTION
  2
BLOCKS
  0
BLOCK
  8
0
  2
SHAPE2DVIEW
 70
0
 10
0.0
 20
0.0
 30
0.0
  3
SHAPE2DVIEW
  0
LINE
  8
0
 62
0
 10
3.4258
 20
0.0
 30
0.0
 11
7.0742
 21
0.0
 31
0.0
  0
ARC
  8
0
 62
0
 10
7.0742
 20
0.0508
 30
0.0
 40
0.0508
 50
-90.0
 51
0.0
  0
LINE
  8
0
 62
0
 10
7.125
 20
0.0508
 30
0.0
 11
7.125
 21
1.0992
 31
0.0
  0
ARC
  8
0
 62
0
 10
7.1758
 20
1.0992
 30
0.0
 40
0.0508
 50
90.0
 51
-180.0
  0
LINE
  8
0
 62
0
 10
7.1758
 20
1.15
 30
0.0
 11
10.4492
 21
1.15
 31
0.0
  0
ARC
  8
0
 62
0
 10
10.4492
 20
1.2008
 30
0.0
 40
0.0508
 50
-90.0
 51
-0.0
  0
LINE
  8
0
 62
0
 10
10.5
 20
1.2008
 30
0.0
 11
10.5
 21
1.7492
 31
0.0
  0
ARC
  8
0
 62
0
 10
10.4492
 20
1.7492
 30
0.0
 40
0.0508
 50
0.0
 51
90.0
  0
LINE
  8
0
 62
0
 10
10.4492
 20
1.8
 30
0.0
 11
7.1758
 21
1.8
 31
0.0
  0
ARC
  8
0
 62
0
 10
7.1758
 20
1.8508
 30
0.0
 40
0.0508
 50
-180.0
 51
-90.0
  0
LINE
  8
0
 62
0
 10
7.125
 20
1.8508
 30
0.0
 11
7.125
 21
1.9742
 31
0.0
  0
ARC
  8
0
 62
0
 10
7.0742
 20
1.9742
 30
0.0
 40
0.0508
 50
-0.0
 51
90.0
  0
LINE
  8
0
 62
0
 10
7.0742
 20
2.025
 30
0.0
 11
3.4258
 21
2.025
 31
0.0
  0
ARC
  8
0
 62
0
 10
3.4258
 20
1.9742
 30
0.0
 40
0.0508
 50
90.0
 51
180.0
  0
LINE
  8
0
 62
0
 10
3.375
 20
1.9742
 30
0.0
 11
3.375
 21
1.8508
 31
0.0
  0
ARC
  8
0
 62
0
 10
3.3242
 20
1.8508
 30
0.0
 40
0.0508
 50
-90.0
 51
-0.0
  0
LINE
  8
0
 62
0
 10
3.3242
 20
1.8
 30
0.0
 11
0.0508
 21
1.8
 31
0.0
  0
ARC
  8
0
 62
0
 10
0.0508
 20
1.7492
 30
0.0
 40
0.0508
 50
90.0
 51
180.0
  0
LINE
  8
0
 62
0
 10
0.0
 20
1.7492
 30
0.0
 11
0.0
 21
1.2008
 31
0.0
  0
ARC
  8
0
 62
0
 10
0.0508
 20
1.2008
 30
0.0
 40
0.0508
 50
-180.0
 51
-90.0
  0
LINE
  8
0
 62
0
 10
0.0508
 20
1.15
 30
0.0
 11
3.3242
 21
1.15
 31
0.0
  0
ARC
  8
0
 62
0
 10
3.3242
 20
1.0992
 30
0.0
 40
0.0508
 50
0.0
 51
90.0
  0
LINE
  8
0
 62
0
 10
3.375
 20
1.0992
 30
0.0
 11
3.375
 21
0.0508
 31
0.0
  0
ARC
  8
0
 62
0
 10
3.4258
 20
0.0508
 30
0.0
 40
0.0508
 50
-180.0
 51
-90.0
  0
ENDBLK
  0
ENDSEC
  0
SECTION
  2
ENTITIES
  0
INSERT
  2
SHAPE2DVIEW
  8
0
 10
0.0
 20
0.0
 30
0.0
  0
CIRCLE
  8
0
 62
0
 10
2.25
 20
1.475
 30
0.0
 40
0.053
  0
CIRCLE
  8
0
 62
0
 10
3.5375
 20
0.1625
 30
0.0
 40
0.043
  0
CIRCLE
  8
0
 62
0
 10
5.825
 20
1.4625
 30
0.0
 40
0.043
  0
CIRCLE
  8
0
 62
0
 10
5.25
 20
1.8625
 30
0.0
 40
0.043
  0
CIRCLE
  8
0
 62
0
 10
4.675
 20
1.4625
 30
0.0
 40
0.043
  0
CIRCLE
  8
0
 62
0
 10
6.25
 20
0.1625
 30
0.0
 40
0.053
  0
CIRCLE
  8
0
 62
0
 10
4.25
 20
0.1625
 30
0.0
 40
0.053
  0
CIRCLE
  8
0
 62
0
 10
6.9625
 20
0.1625
 30
0.0
 40
0.043
  0
CIRCLE
  8
0
 62
0
 10
8.25
 20
1.475
 30
0.0
 40
0.053
  0
ENDSEC
  0
EOF
